<svg xmlns="http://www.w3.org/2000/svg" viewBox="0 0 102 102"><path d="M51.61,1H50.39a50,50,0,0,0,0,100h1.22a50,50,0,0,0,0-100ZM33.86,10.46A47.3,47.3,0,0,0,27.27,22H17.92A44,44,0,0,1,33.86,10.46ZM13.49,28H25.18a80.06,80.06,0,0,0-3.13,20H7.11A43.47,43.47,0,0,1,13.49,28ZM12,71h-.2A43.57,43.57,0,0,1,7.11,54H22.05a82,82,0,0,0,2.31,17Zm3.51,6H26.14a49.63,49.63,0,0,0,7.72,14.54A44.19,44.19,0,0,1,15.51,77ZM48,94.61C41.81,93,36.23,86.45,32.55,77H48ZM48,71H30.58a73.76,73.76,0,0,1-2.52-17H48Zm0-23H28.06a72.89,72.89,0,0,1,3.41-20H48Zm0-26H33.83C37.46,14.18,42.49,8.83,48,7.39Zm40.51,6a43.47,43.47,0,0,1,6.38,20H80a80.06,80.06,0,0,0-3.13-20Zm-4.43-6H74.73a47.3,47.3,0,0,0-6.59-11.54A44,44,0,0,1,84.08,22ZM54,7.39C59.51,8.83,64.54,14.18,68.17,22H54ZM54,28H70.53a72.89,72.89,0,0,1,3.41,20H54Zm0,26H73.94a73.76,73.76,0,0,1-2.52,17H54Zm0,40.61V77H69.45C65.77,86.45,60.19,93,54,94.61Zm14.14-3.07A49.63,49.63,0,0,0,75.86,77H86.49A44.19,44.19,0,0,1,68.14,91.54ZM90.2,71H77.64A82,82,0,0,0,80,54H94.89A43.52,43.52,0,0,1,90.2,71Z"/></svg>