<?xml version="1.0" encoding="UTF-8" standalone="no"?>
<!-- Generator: Adobe Illustrator 19.0.0, SVG Export Plug-In . SVG Version: 6.00 Build 0)  -->

<svg
   xmlns:dc="http://purl.org/dc/elements/1.1/"
   xmlns:cc="http://creativecommons.org/ns#"
   xmlns:rdf="http://www.w3.org/1999/02/22-rdf-syntax-ns#"
   xmlns:svg="http://www.w3.org/2000/svg"
   xmlns="http://www.w3.org/2000/svg"
   xmlns:sodipodi="http://sodipodi.sourceforge.net/DTD/sodipodi-0.dtd"
   xmlns:inkscape="http://www.inkscape.org/namespaces/inkscape"
   version="1.1"
   id="Layer_1"
   x="0px"
   y="0px"
   viewBox="0 0 359.38983 359.38983"
   xml:space="preserve"
   sodipodi:docname="cat-default-product.svg"
   width="359.38983"
   height="359.38983"
   inkscape:version="0.92.0 r15299"><metadata
     id="metadata13"><rdf:RDF><cc:Work
         rdf:about=""><dc:format>image/svg+xml</dc:format><dc:type
           rdf:resource="http://purl.org/dc/dcmitype/StillImage" /><dc:title></dc:title></cc:Work></rdf:RDF></metadata><defs
     id="defs11" /><sodipodi:namedview
     pagecolor="#ffffff"
     bordercolor="#666666"
     borderopacity="1"
     objecttolerance="10"
     gridtolerance="10"
     guidetolerance="10"
     inkscape:pageopacity="0"
     inkscape:pageshadow="2"
     inkscape:window-width="1588"
     inkscape:window-height="1021"
     id="namedview9"
     showgrid="false"
     inkscape:zoom="1.7447717"
     inkscape:cx="191.92199"
     inkscape:cy="188.24268"
     inkscape:window-x="685"
     inkscape:window-y="118"
     inkscape:window-maximized="0"
     inkscape:current-layer="Layer_1"
     fit-margin-top="0"
     fit-margin-left="0"
     fit-margin-right="0"
     fit-margin-bottom="0" /><rect
     style="opacity:1;fill:#F2F4F7;fill-opacity:1;fill-rule:nonzero;stroke:none;stroke-width:5.98983908;stroke-miterlimit:1;stroke-dasharray:none;stroke-opacity:1;paint-order:stroke fill markers"
     id="rect4490"
     width="359.38983"
     height="359.38983"
     x="0"
     y="0" /><g
     id="g6"
     transform="matrix(6,0,0,6,107.38682,107.38758)"
     style="fill:#4d4d4d"><g
       id="g4"
       style="fill:#4d4d4d"><path
         d="M 22.492,6.467 C 22.488,6.408 22.472,6.351 22.446,6.295 22.439,6.279 22.438,6.262 22.429,6.248 22.428,6.246 22.428,6.244 22.427,6.243 22.387,6.176 22.332,6.126 22.271,6.086 22.265,6.082 22.263,6.075 22.257,6.072 l -10,-6 c -0.159,-0.095 -0.357,-0.095 -0.515,0 l -10,6 C 1.736,6.075 1.734,6.082 1.728,6.086 1.667,6.126 1.612,6.176 1.572,6.243 1.571,6.245 1.571,6.247 1.57,6.248 1.562,6.261 1.561,6.277 1.555,6.29 1.527,6.349 1.511,6.409 1.507,6.471 1.507,6.481 1.5,6.49 1.5,6.5 v 11 c 0,0.176 0.093,0.339 0.243,0.429 l 10,6 c 0.008,0.005 0.018,0.003 0.026,0.007 C 11.839,23.974 11.915,24 12,24 c 0.084,0 0.16,-0.026 0.23,-0.063 0.009,-0.005 0.019,-0.003 0.028,-0.008 l 10,-5.996 c 0.151,-0.091 0.243,-0.253 0.243,-0.429 V 6.5 c 0,-0.012 -0.008,-0.021 -0.009,-0.033 z m -10.992,16.15 -9,-5.4 V 7.383 l 9,5.4 z M 11.999,11.917 2.971,6.5 12,1.083 21.027,6.5 Z m 9.501,5.304 -9,5.396 v -9.835 l 9,-5.4 z"
         id="path2"
         inkscape:connector-curvature="0"
         style="fill:#4d4d4d" /></g></g></svg>